<svg width="14" height="14" viewBox="0 0 14 14" fill="none" xmlns="http://www.w3.org/2000/svg">
<g clip-path="url(#clip0_159_4931)">
<path fill-rule="evenodd" clip-rule="evenodd" d="M7.00016 1.89575C8.35387 1.89575 9.65214 2.43351 10.6094 3.39073C11.5666 4.34794 12.1043 5.64621 12.1043 6.99992C12.1043 8.35363 11.5666 9.65189 10.6094 10.6091C9.65214 11.5663 8.35387 12.1041 7.00016 12.1041C5.64645 12.1041 4.34819 11.5663 3.39097 10.6091C2.43375 9.65189 1.896 8.35363 1.896 6.99992C1.896 5.64621 2.43375 4.34794 3.39097 3.39073C4.34819 2.43351 5.64645 1.89575 7.00016 1.89575ZM7.00016 2.62492C6.42563 2.62492 5.85672 2.73808 5.32592 2.95795C4.79512 3.17781 4.31283 3.50007 3.90657 3.90633C3.50031 4.31258 3.17805 4.79488 2.95819 5.32568C2.73833 5.85648 2.62516 6.42539 2.62516 6.99992C2.62516 7.57445 2.73833 8.14336 2.95819 8.67416C3.17805 9.20496 3.50031 9.68725 3.90657 10.0935C4.31283 10.4998 4.79512 10.822 5.32592 11.0419C5.85672 11.2618 6.42563 11.3749 7.00016 11.3749C8.16049 11.3749 9.27328 10.914 10.0938 10.0935C10.9142 9.27304 11.3752 8.16024 11.3752 6.99992C11.3752 5.8396 10.9142 4.7268 10.0938 3.90633C9.27328 3.08585 8.16049 2.62492 7.00016 2.62492ZM6.271 9.552C6.17989 9.55217 6.09202 9.51822 6.0247 9.45684C5.95737 9.39546 5.91546 9.3111 5.90723 9.22036C5.899 9.12963 5.92504 9.0391 5.98022 8.9666C6.0354 8.89411 6.11572 8.8449 6.20537 8.82867L6.271 8.82284H6.63485V6.63534H6.271C6.18567 6.63536 6.10303 6.60546 6.03747 6.55083C5.97192 6.4962 5.92761 6.42031 5.91225 6.33638L5.90641 6.27075C5.90638 6.18542 5.93629 6.10278 5.99092 6.03723C6.04554 5.97168 6.12143 5.92736 6.20537 5.912L6.271 5.90617H7.36475L7.36402 8.82284H7.72933C7.82044 8.82267 7.9083 8.85662 7.97563 8.918C8.04296 8.97938 8.08486 9.06374 8.09309 9.15448C8.10133 9.24521 8.07529 9.33574 8.02011 9.40823C7.96493 9.48073 7.8846 9.52994 7.79495 9.54617L7.72933 9.552H6.271ZM6.91193 4.35961C7.03203 4.35961 7.1472 4.40731 7.23212 4.49223C7.31704 4.57715 7.36475 4.69233 7.36475 4.81242C7.36475 4.93251 7.31704 5.04769 7.23212 5.13261C7.1472 5.21752 7.03203 5.26523 6.91193 5.26523C6.79184 5.26523 6.67667 5.21752 6.59175 5.13261C6.50683 5.04769 6.45912 4.93251 6.45912 4.81242C6.45912 4.69233 6.50683 4.57715 6.59175 4.49223C6.67667 4.40731 6.79184 4.35961 6.91193 4.35961Z" fill="#5C5C5C"/>
</g>
<defs>
<clipPath id="clip0_159_4931">
<rect width="11.6667" height="11.6667" fill="white" transform="translate(1.1665 1.16675)"/>
</clipPath>
</defs>
</svg>
