<svg width="22" height="22" viewBox="0 0 22 22" fill="none" xmlns="http://www.w3.org/2000/svg">
<g id="whatsapp">
<path id="Vector" d="M17.4627 4.50093C16.6223 3.65203 15.6213 2.97896 14.5181 2.52098C13.4148 2.06299 12.2314 1.82927 11.0369 1.83343C6.03189 1.83343 1.95273 5.91259 1.95273 10.9176C1.95273 12.5218 2.37439 14.0801 3.16273 15.4551L1.87939 20.1668L6.69189 18.9018C8.02106 19.6259 9.51523 20.0109 11.0369 20.0109C16.0419 20.0109 20.1211 15.9318 20.1211 10.9268C20.1211 8.49759 19.1769 6.2151 17.4627 4.50093ZM11.0369 18.4709C9.68023 18.4709 8.35106 18.1043 7.18689 17.4168L6.91189 17.2518L4.05189 18.0034L4.81273 15.2168L4.62939 14.9326C3.87566 13.729 3.47544 12.3377 3.47439 10.9176C3.47439 6.75593 6.86606 3.36426 11.0277 3.36426C13.0444 3.36426 14.9419 4.1526 16.3627 5.5826C17.0663 6.2829 17.6238 7.11587 18.003 8.03324C18.3822 8.9506 18.5756 9.93411 18.5719 10.9268C18.5902 15.0884 15.1986 18.4709 11.0369 18.4709ZM15.1802 12.8243C14.9511 12.7143 13.8327 12.1643 13.6311 12.0818C13.4202 12.0084 13.2736 11.9718 13.1177 12.1918C12.9619 12.4209 12.5311 12.9343 12.4027 13.0809C12.2744 13.2368 12.1369 13.2551 11.9077 13.1359C11.6786 13.0259 10.9452 12.7784 10.0836 12.0084C9.40523 11.4034 8.95606 10.6609 8.81856 10.4318C8.69023 10.2026 8.80023 10.0834 8.91939 9.96426C9.02023 9.86343 9.14856 9.69843 9.25856 9.57009C9.36856 9.44176 9.41439 9.34093 9.48773 9.19426C9.56106 9.03843 9.52439 8.9101 9.46939 8.8001C9.41439 8.6901 8.95606 7.57176 8.77273 7.11343C8.58939 6.67343 8.39689 6.72843 8.25939 6.71926H7.81939C7.66356 6.71926 7.42523 6.77426 7.21439 7.00343C7.01273 7.2326 6.42606 7.7826 6.42606 8.90093C6.42606 10.0193 7.24189 11.1009 7.35189 11.2476C7.46189 11.4034 8.95606 13.6951 11.2294 14.6759C11.7702 14.9143 12.1919 15.0518 12.5219 15.1526C13.0627 15.3268 13.5577 15.2993 13.9519 15.2443C14.3919 15.1801 15.2994 14.6943 15.4827 14.1626C15.6752 13.6309 15.6752 13.1818 15.6111 13.0809C15.5469 12.9801 15.4094 12.9343 15.1802 12.8243Z" fill="white"/>
</g>
</svg>
