<svg width="32" height="32" viewBox="0 0 32 32" fill="none" xmlns="http://www.w3.org/2000/svg">
<g id="ri:tiktok-line" clip-path="url(#clip0_231_3430)">
<path id="Vector" d="M8.10042 5.99933V12.4137C6.71566 12.1566 5.28534 12.3327 4.00424 12.9179C2.72315 13.503 1.65355 14.4688 0.941101 15.6837C0.228657 16.8986 -0.0919994 18.3036 0.0227992 19.7073C0.137598 21.1111 0.682272 22.4453 1.58265 23.5283C2.48302 24.6113 3.69533 25.3905 5.05447 25.7597C6.41362 26.129 7.85354 26.0703 9.17814 25.5917C10.5027 25.1131 11.6476 24.2379 12.4569 23.0852C13.2662 21.9325 13.7005 20.5584 13.7007 19.15V15.4138C14.7758 15.871 15.9327 16.1044 17.1009 16.0998H18.1009V10.4996H17.1009C15.1978 10.4996 13.7007 8.96248 13.7007 6.99938V5.99933H8.10042ZM10.1005 7.99943H11.7886C12.1826 10.2195 13.8687 11.9956 16.1008 12.4097V14.0277C15.0628 13.8757 14.1257 13.4857 13.2577 12.9047L11.7006 11.8626V19.15C11.7005 20.1199 11.4096 21.0675 10.8655 21.8705C10.3214 22.6734 9.54905 23.2947 8.64822 23.6543C7.7474 24.0138 6.75947 24.095 5.81203 23.8874C4.86459 23.6797 4.00117 23.1928 3.33327 22.4895C2.66538 21.7861 2.22369 20.8987 2.06525 19.9418C1.90682 18.9849 2.03891 18.0025 2.44448 17.1215C2.85004 16.2404 3.51045 15.5012 4.3404 14.9992C5.17035 14.4973 6.13173 14.2558 7.10036 14.3057V15.9098C6.4488 15.8596 5.79722 16.0069 5.23065 16.3325C4.66408 16.6582 4.20884 17.1471 3.92434 17.7354C3.63985 18.3237 3.53931 18.9842 3.63585 19.6305C3.73238 20.2768 4.02152 20.879 4.46551 21.3586C4.9095 21.8381 5.48773 22.1726 6.12473 22.3185C6.76174 22.4644 7.42793 22.4149 8.03637 22.1764C8.6448 21.9379 9.16722 21.5216 9.53544 20.9817C9.90367 20.4418 10.1006 19.8035 10.1005 19.15V7.99943ZM5.60029 19.15C5.60029 18.8185 5.73199 18.5005 5.96642 18.2661C6.20086 18.0316 6.51881 17.8999 6.85035 17.8999C7.18189 17.8999 7.49985 18.0316 7.73428 18.2661C7.96871 18.5005 8.10042 18.8185 8.10042 19.15C8.10042 19.4815 7.96871 19.7995 7.73428 20.0339C7.49985 20.2684 7.18189 20.4001 6.85035 20.4001C6.51881 20.4001 6.20086 20.2684 5.96642 20.0339C5.73199 19.7995 5.60029 19.4815 5.60029 19.15Z" fill="#27272A"/>
</g>
<defs>
<clipPath id="clip0_231_3430">
<rect width="32" height="32" fill="white"/>
</clipPath>
</defs>
</svg>
