<svg width="32" height="32" viewBox="0 0 32 32" fill="none" xmlns="http://www.w3.org/2000/svg">
<g id="whatsapp" clip-path="url(#clip0_231_3396)">
<path id="Vector" d="M18.6999 8.20103C17.6915 7.18235 16.4903 6.37467 15.1664 5.82509C13.8425 5.27551 12.4224 4.99504 10.989 5.00004C4.98299 5.00004 0.0879999 9.89502 0.0879999 15.901C0.0879999 17.826 0.593998 19.696 1.54 21.346L0 27L5.77498 25.482C7.36998 26.351 9.16297 26.813 10.989 26.813C16.9949 26.813 21.8899 21.918 21.8899 15.912C21.8899 12.997 20.7569 10.258 18.6999 8.20103ZM10.989 24.965C9.36097 24.965 7.76598 24.525 6.36898 23.7L6.03898 23.502L2.60699 24.404L3.51999 21.06L3.29999 20.719C2.39551 19.2747 1.91525 17.6052 1.91399 15.901C1.91399 10.907 5.98398 6.83703 10.978 6.83703C13.398 6.83703 15.675 7.78303 17.3799 9.49902C18.2242 10.3394 18.8932 11.3389 19.3483 12.4398C19.8033 13.5406 20.0354 14.7208 20.0309 15.912C20.0529 20.906 15.983 24.965 10.989 24.965ZM15.961 18.189C15.686 18.057 14.344 17.397 14.102 17.298C13.849 17.21 13.673 17.166 13.486 17.43C13.299 17.705 12.782 18.321 12.628 18.497C12.474 18.684 12.309 18.706 12.034 18.563C11.759 18.431 10.879 18.134 9.84497 17.21C9.03097 16.484 8.49197 15.593 8.32697 15.318C8.17298 15.043 8.30497 14.9 8.44797 14.757C8.56897 14.636 8.72297 14.438 8.85497 14.284C8.98697 14.13 9.04197 14.009 9.12997 13.833C9.21797 13.646 9.17397 13.492 9.10797 13.36C9.04197 13.228 8.49197 11.886 8.27197 11.336C8.05198 10.808 7.82098 10.874 7.65598 10.863H7.12798C6.94098 10.863 6.65498 10.929 6.40198 11.204C6.15998 11.479 5.45598 12.139 5.45598 13.481C5.45598 14.823 6.43498 16.121 6.56698 16.297C6.69898 16.484 8.49197 19.234 11.22 20.411C11.869 20.697 12.375 20.862 12.771 20.983C13.42 21.192 14.014 21.159 14.487 21.093C15.015 21.016 16.104 20.433 16.3239 19.795C16.5549 19.157 16.555 18.618 16.478 18.497C16.401 18.376 16.236 18.321 15.961 18.189Z" fill="#27272A"/>
</g>
<defs>
<clipPath id="clip0_231_3396">
<rect width="32" height="32" fill="white"/>
</clipPath>
</defs>
</svg>
