<svg width="18" height="18" viewBox="0 0 18 18" fill="none" xmlns="http://www.w3.org/2000/svg">
<g id="filter_alt">
<mask id="mask0_135_3026" style="mask-type:alpha" maskUnits="userSpaceOnUse" x="0" y="0" width="18" height="18">
<rect id="Bounding box" width="18" height="18" fill="#D9D9D9"/>
</mask>
<g mask="url(#mask0_135_3026)">
<path id="filter_alt_2" d="M8.24982 15C8.03732 15 7.85919 14.9281 7.71544 14.7844C7.57169 14.6406 7.49982 14.4625 7.49982 14.25V9.75L3.14982 4.2C2.96232 3.95 2.93419 3.6875 3.06544 3.4125C3.19669 3.1375 3.42482 3 3.74982 3H14.2498C14.5748 3 14.8029 3.1375 14.9342 3.4125C15.0654 3.6875 15.0373 3.95 14.8498 4.2L10.4998 9.75V14.25C10.4998 14.4625 10.4279 14.6406 10.2842 14.7844C10.1404 14.9281 9.96232 15 9.74982 15H8.24982ZM8.99982 9.225L12.7123 4.5H5.28732L8.99982 9.225Z" fill="#3F3F46"/>
</g>
</g>
</svg>
