<svg width="5" height="8" viewBox="0 0 5 8" fill="none" xmlns="http://www.w3.org/2000/svg">
<path id="Vector" d="M4.46875 3.82031C4.52083 3.8724 4.54688 3.93229 4.54688 4C4.54688 4.06771 4.52083 4.1276 4.46875 4.17969L0.828125 7.82031C0.776042 7.8724 0.716146 7.89844 0.648438 7.89844C0.580729 7.89844 0.520833 7.8724 0.46875 7.82031L0.078125 7.42969C0.0260417 7.3776 0 7.31771 0 7.25C0 7.18229 0.0260417 7.1224 0.078125 7.07031L3.14844 4L0.078125 0.929688C0.0260417 0.877604 0 0.817708 0 0.75C0 0.682292 0.0260417 0.622396 0.078125 0.570312L0.46875 0.179688C0.520833 0.127604 0.580729 0.101562 0.648438 0.101562C0.716146 0.101562 0.776042 0.127604 0.828125 0.179688L4.46875 3.82031Z" fill="#252525"/>
</svg>
